<svg xmlns="http://www.w3.org/2000/svg" version="1.1" xmlns:xlink="http://www.w3.org/1999/xlink" xmlns:svgjs="http://svgjs.dev/svgjs" viewBox="0 0 800 800" opacity="0.68"><defs><linearGradient x1="50%" y1="0%" x2="50%" y2="100%" id="uundulate-grad"><stop stop-color="hsl(0, 0%, 0%)" stop-opacity="1" offset="45%"></stop><stop stop-color="hsl(0, 0%, 25%)" stop-opacity="1" offset="100%"></stop></linearGradient></defs><g stroke-width="1" stroke="url(#uundulate-grad)" fill="none"><path d="M926.2604642893516 328.93600115618165C972.7714362729344 777.4768394808711 1288.0717188856806 1300.947172193009 1131.963739032451 1463.6380974657845C975.8557591792216 1626.3290227385596 470.72493352380184 1248.3434317692936 176.94216099384835 1109.8524424655034C-116.84061153610537 971.3614531617143 -171.5290220294006 977.8935525963027 -278.19356911132485 798.8813488075959C-384.85811619324915 619.8691450188896 -402.7127780436945 447.68299940943734 -335.04766499939063 250.5938642797114C-267.38255195508674 53.50472914998568 -212.51743035505297 48.676789929170354 46.59897350133201 -147.14649981508785C305.715377357717 -342.96978955934605 725.4482629304184 -788.541780861741 908.7110735112556 -689.3579264927268C1091.973884092093 -590.1740721237127 879.7494923057689 -119.60483716850797 926.2604642893516 328.93600115618165C972.7714362729344 777.4768394808711 1288.0717188856806 1300.947172193009 1131.963739032451 1463.6380974657845 "></path><path d="M905.2099920068401 331.7785098404029C949.8605251110794 762.3777146321047 1252.548796419316 1264.9092340357574 1102.6851357602156 1421.092522297622C952.8214751011151 1577.2758105594862 467.8958824719123 1214.4096432289903 185.86442084315684 1081.4582934973523C-96.1670407855986 948.5069437657146 -148.66791485916212 954.777759222919 -251.06588005780935 782.9260435857609C-353.46384525645664 611.0743279486026 -370.6043206328842 445.7756281635286 -305.6458121103525 256.57005843899196C-240.6873035878208 67.36448871445509 -188.0167868517883 62.729667062472345 60.73496085034117 -125.26069109201558C309.48670855247076 -313.2510492465035 712.4302787022641 -741.0001608968026 888.3625768598681 -645.783660702549C1064.2948750174717 -550.5671605082955 860.5594589026007 -98.82069495129895 905.2099920068401 331.7785098404029C949.8605251110794 762.3777146321047 1252.548796419316 1264.9092340357574 1102.6851357602156 1421.092522297622 "></path><path d="M884.159641794641 334.62111007735894C926.9497360195371 747.2786813360735 1217.0259960232638 1228.8713874312407 1073.4066545582925 1378.5470386821935C929.7873130933212 1528.2226899331467 465.0669534903352 1180.4759462414218 194.78680276277805 1053.0642360819354C-75.49334796477933 925.6525259224491 -125.80668561861103 931.6620574022702 -223.9380689339814 766.9708299166603C-322.0694522493517 602.2796024310503 -338.4957411517614 443.86834847035425 -276.24383715100186 262.54634415100645C-213.9919331502423 81.22433983165865 -163.51602127821116 76.78263574850871 74.87107026966294 -103.37479081620893C313.25816181753703 -283.53221738092657 699.4124165444223 -693.4584493791299 868.0142022787927 -602.2093033596368C1036.615988013163 -510.96015734014384 841.3695475697448 -78.03646118135532 884.159641794641 334.62111007735894C926.9497360195371 747.2786813360735 1217.0259960232638 1228.8713874312407 1073.4066545582925 1378.5470386821935 "></path><path d="M863.1091695121293 337.4636187615804C904.0388248576821 732.1795564873071 1181.5030735568992 1192.8334492739887 1044.1280512860571 1336.001463514031C906.7530290152149 1479.169477754073 462.23790243844564 1146.5421577011189 203.70906261208654 1024.670087113784C-54.819777214272676 902.7980165264494 -102.94557844837254 908.546264028887 -196.81037988046592 751.0155246948252C-290.67518131255923 593.4847853607635 -306.38728374095115 441.9609772244455 -246.84198426196377 268.5225383102868C-187.29668478297634 95.08409939612807 -139.0153777749465 90.83551288181059 89.0070576186722 -81.48898209313666C317.0294930122908 -253.8134770680839 686.3944323162682 -645.9168294141915 847.665705627405 -558.635037569459C1008.9369789385419 -471.3532457247266 822.1795141665766 -57.2523189641463 863.1091695121293 337.4636187615804C904.0388248576821 732.1795564873071 1181.5030735568992 1192.8334492739887 1044.1280512860571 1336.001463514031 "></path><path d="M842.058758264774 340.30615796338C881.1279747309836 717.0804621561192 1145.9802121256907 1156.795541634315 1014.8495090489778 1293.4559188634466C883.7188059722648 1430.1162960925776 459.40891242171233 1112.608399678394 212.63138349655128 996.2759686632107C-34.14614542860966 879.9435376480276 -80.08441024297781 885.4305011730819 -169.6826297917941 735.0602499905683C-259.28084934061053 584.6899988080547 -274.2787652949846 440.0536364961149 -217.44007033776938 274.49876298714526C-160.60137538055415 108.94388947817549 -114.51467323652571 104.8884205326907 103.14310600283761 -59.60314285248637C320.80088524220093 -224.09470623766322 673.3765091232704 -598.375178931675 827.3172700111734 -515.060741261703C981.2580308990769 -431.7463035917312 802.9895417985647 -36.46814622935915 842.058758264774 340.30615796338C881.1279747309836 717.0804621561192 1145.9802121256907 1156.795541634315 1014.8495090489778 1293.4559188634466 "></path><path d="M821.0083470174188 343.1487276827579C858.2171246042849 701.9813983425092 1110.457350694482 1120.75766451222 985.5709668118984 1250.91040473044C860.6845829293147 1381.0631449486605 456.579922404979 1078.674672173247 221.55370438101613 967.8818807302157C-13.472513642946751 857.0890892871839 -57.22324203758296 862.3147688348545 -142.55487970312242 719.1050058038893C-227.88651736866177 575.8952427729241 -242.1702468490181 438.1463262853624 -188.038156413575 280.4750181815816C-133.9060659781319 122.80371007780104 -90.0139686981048 118.94135870114883 117.27915438700313 -37.717273094257735C324.57227747211095 -194.3759048896644 660.358585930272 -550.8334979315803 806.9688343949422 -471.486414436369C953.5790828596118 -392.1393309411577 783.7995694305525 -15.683942976993876 821.0083470174188 343.1487276827579C858.2171246042849 701.9813983425092 1110.457350694482 1120.75766451222 985.5709668118984 1250.91040473044 "></path><path d="M799.9579357700636 345.99126688455726C835.3062744775862 686.8823040113214 1074.9344892632737 1084.7197568725462 956.292424574819 1208.3648600798554C837.6503598863646 1332.0099632871647 453.7509323882457 1044.7409141505223 230.47602526548098 939.4877622796423C7.201118142716268 834.2346104087621 -34.36207383218823 839.1990059790494 -115.42712961445068 703.1497310996324C-196.49218539671307 567.1004562202154 -210.06172840305157 436.2389855570318 -158.6362424893806 286.4512428584403C-107.2107565757097 136.66350015984847 -65.51326415968396 132.99426635202883 131.41520277116865 -15.831433853607336C328.3436697020211 -164.65713405924362 647.3406627372742 -503.2918474490638 786.6203987787105 -427.9121181286131C925.9001348201468 -352.5323888081623 764.6095970625406 5.100229757793386 799.9579357700636 345.99126688455726C835.3062744775862 686.8823040113214 1074.9344892632737 1084.7197568725462 956.292424574819 1208.3648600798554 "></path><path d="M778.9075245227082 348.83389763909145C812.3954243508877 671.7833012328679 1039.411627832065 1048.6819407856071 927.0138823377397 1165.8194069820054C814.6161368434146 1282.9568731784036 450.9219423715124 1010.8072476805316 239.39834614994584 911.0937353818033C27.874749928379174 811.3802230830747 -11.500905626793383 816.0833346759784 -88.29937952577893 687.1945479481096C-165.09785342476437 558.305761220241 -177.95320995708505 434.33173638143535 -129.23432856518627 292.4275590880329C-80.5154471732875 150.52338179463027 -41.01255962126311 147.04726555564332 145.55125115533406 6.054496939777437C332.1150619319312 -134.93827167608856 634.3227395442764 -455.7501054138129 766.2719631624791 -384.33773026812275C898.221186780682 -312.92535512243256 745.4196246945285 25.88449404531491 778.9075245227082 348.83389763909145C812.3954243508877 671.7833012328679 1039.411627832065 1048.6819407856071 927.0138823377397 1165.8194069820054 "></path><path d="M757.8571132753527 351.6764063233127C789.4845742241891 656.6841763841016 1003.8887664008566 1012.6440026283556 897.7353401006603 1123.2738318138427C791.5819138004645 1233.9036609993298 448.09295235477896 976.8734591402288 248.32066703441058 882.699586413652C48.54838171404208 788.525713687075 11.36026257860135 792.967541302595 -61.171629437107185 671.2392427262746C-133.70352145281566 549.5109441499542 -145.84469151111853 432.42436513552684 -99.83241464099189 298.40375324731315C-53.820137770865244 164.38314135909957 -16.511855082842203 161.1001426889452 159.68729953949946 27.940305662849596C335.88645416184124 -105.219531363246 621.3048163512783 -408.2084854488745 745.9235275462474 -340.7634644779449C870.5422387412168 -273.3184435070153 726.2296523265165 46.66863626252393 757.8571132753527 351.6764063233127C789.4845742241891 656.6841763841016 1003.8887664008566 1012.6440026283556 897.7353401006603 1123.2738318138427 "></path><path d="M736.8067020279975 354.5190981130031C766.5737240974904 641.5852346408044 968.3659049696482 976.6062475765727 868.4567978635812 1080.728439751149C768.5476907575144 1184.8506319257253 445.26396233804576 942.9398537053946 257.24298791887543 854.3056205509693C69.2220134997051 765.6713873965441 34.221430783996084 769.8519310346805 -34.04387934843544 655.2841206099083C-102.30918948086696 540.7163101851361 -113.736173065152 430.51717699508686 -70.4305007167975 304.38013051206235C-27.12482836844299 178.24308402903773 7.988849455578645 175.15320292771594 173.82334792366498 49.82629749139073C339.65784639175126 -75.50060794493459 608.2868931582802 -360.6666823784674 725.5750919300162 -297.18901558229834C842.8632907017518 -233.7113487861293 707.0396799585046 67.45296158520182 736.8067020279975 354.5190981130031C766.5737240974904 641.5852346408044 968.3659049696482 976.6062475765727 868.4567978635812 1080.728439751149 "></path><path d="M715.7562907806423 357.36145420933394C743.6628739707917 626.4859572041478 932.8430435384398 940.5681568314305 839.178255626502 1038.1827119950958C745.5134677145643 1135.7972671587609 442.43497232131244 909.0059125772011 266.16530880334017 825.9113189949273C89.89564528536812 742.8167254126538 57.08259898939093 746.7359850734065 -6.916129259763693 639.3286628001827C-70.9148575089182 531.9213405269588 -81.62765461918548 428.6096531612875 -41.02858679260311 310.35617208345195C-0.42951896602079387 192.1026910056164 32.48955399399949 189.2059274731273 187.9593963078305 71.71195362657227C343.4292386216614 -45.782020219982655 595.2689699652824 -313.12521500141963 705.2266563137846 -253.61490238001113C815.184342662287 -194.10458975860263 687.8497075904925 88.23695121452022 715.7562907806423 357.36145420933394C743.6628739707917 626.4859572041478 932.8430435384398 940.5681568314305 839.178255626502 1038.1827119950958 "></path><path d="M694.7058795332869 360.204115481446C720.7520238440932 611.3869849432722 897.3201821072312 904.5303712620696 809.8997133894227 995.6372894148237C722.4792446716142 1086.7442075675779 439.605982304579 875.0722766247886 275.087629687805 797.5173226146667C110.56927707103102 719.9623686045443 79.94376719478566 723.6203442879139 20.211620828908053 623.3735101662382C-39.5205255369695 523.1266760445626 -49.5191361732189 426.7024345032693 -11.626672868408775 316.3325188306228C26.265790436401403 205.96260315797633 56.9902585324204 203.2589571943198 202.0954446919959 93.59791493753528C347.20063085157153 -16.063127319249475 582.2510467722843 -265.58344244859063 684.8782206975532 -210.04048400194267C787.505394622822 -154.49752555529477 668.6597352224808 109.02124601961998 694.7058795332869 360.204115481446C720.7520238440932 611.3869849432722 897.3201821072312 904.5303712620696 809.8997133894227 995.6372894148237 "></path><path d="M673.6554072507754 363.04659364808947C697.8411126822384 596.2878295769278 861.7972596408663 868.4924025872397 780.6211101171871 953.0916837290829C699.4449605935079 1037.6909648709259 436.77693125268945 841.1384575669076 284.0098895371136 769.123143128937C131.24284782153774 697.1078286909665 102.8048743650242 700.5045203969523 47.33930988242355 607.4181744268249C-8.126254600177049 514.3318284566976 -17.410678762408622 424.7950327397824 17.775180020629364 322.308682472325C52.96103880366741 219.8223322048675 81.490902035685 217.31180381004367 216.23143204100518 115.48369314302931C350.9719620463253 13.65558247601507 569.23306254413 -218.04185300123032 664.5297240461655 -166.46624872934296C759.826385548201 -114.89064445745561 649.4697018193123 129.80535771925088 673.6554072507754 363.04659364808947C697.8411126822384 596.2878295769278 861.7972596408663 868.4924025872397 780.6211101171871 953.0916837290829 "></path><path d="M652.6049960034201 365.88925492020144C674.9302625555397 581.1888573160522 826.2743982096581 832.4546170178787 751.3425678801077 910.546261148811C676.4107375505575 988.6379052797431 433.94794123595614 807.2048216144951 292.9322104215785 740.7291467486762C151.9164796072007 674.2534718828574 125.66604257041894 677.3888796114595 74.4670599710953 591.4630217928805C23.268077371771653 505.5371639743013 14.697839683557902 422.8878140817643 47.17709394482375 328.285029219496C79.6563482060896 233.68224435722755 105.99160657410584 231.36483353123617 230.36748042517058 137.3696544539922C354.7433542762353 43.37447537674825 556.215139351132 -170.50008044840132 644.181288429934 -122.8918303512745C732.147437508736 -75.28358025414775 630.2797294513003 150.58965252435053 652.6049960034201 365.88925492020144C674.9302625555397 581.1888573160522 826.2743982096581 832.4546170178787 751.3425678801077 910.546261148811 "></path><path d="M631.5545847560646 368.73179412200113C652.0194124288411 566.0897629848645 790.7515367784495 796.4167093782053 722.0640256430286 868.0007164982264C653.3765145076075 939.5847236182474 431.1189512192228 773.2710635917704 301.8545313060433 712.3350282981028C172.59011139286366 651.3989930044356 148.52721077581373 654.2731167556544 101.59481005976704 575.5077470886235C54.66240934372041 496.74237742159266 46.806358129524426 420.9804733534337 76.57900786901814 334.26125389635433C106.3516576085118 247.54203443927497 130.49231111252675 245.4177411821163 244.5035288093361 159.2554936946426C358.51474650614546 73.09324620716899 543.1972161581341 -122.95842996588482 623.8328528137025 -79.3175340435186C704.4684894692709 -35.67663812115234 611.0897570832883 171.3738252591378 631.5545847560646 368.73179412200113C652.0194124288411 566.0897629848645 790.7515367784495 796.4167093782053 722.0640256430286 868.0007164982264 "></path><path d="M610.5041735087094 371.57436384137895C629.1085623021424 550.9906991712546 755.228675347241 760.37883225611 692.7854834059492 825.45520236522C630.3422914646574 890.5315724743302 428.2899612024895 739.3373360866235 310.77685219050807 683.940940365108C193.26374317852662 628.544544643592 171.38837898120852 631.1573844174272 128.7225601484388 559.5525029019446C86.05674131566911 487.94762138646206 78.91487657549095 419.0731631426812 105.98092179321247 340.2375090907908C133.04696701093405 261.4018550389005 154.9930156509476 259.4706793505744 258.6395771935015 181.14136345287113C362.2861387360555 102.8120475551678 530.179292965136 -75.41674896579013 603.4844171974711 -35.74320721818452C676.7895414298059 3.9303345294211454 591.8997847152763 192.15802851150306 610.5041735087094 371.57436384137895C629.1085623021424 550.9906991712546 755.228675347241 760.37883225611 692.7854834059492 825.45520236522 "></path><path d="M589.4537622613541 374.4169640783348C606.1977121754438 535.891665875223 719.7058139160325 724.3409856515927 663.5069411688698 782.9097187497919C607.3080684217073 841.478451847991 425.4609711857562 705.403639099055 319.6991730749729 655.5468829496907C213.9373749641896 605.6901268003264 194.2495471866033 608.0416825967783 155.85031023711053 543.5972892328439C117.45107328761782 479.1528958689096 111.02339502145747 417.16588344950674 135.38283571740686 346.2137948028055C159.74227641335625 275.2617061561042 179.49372018936845 273.52364803661067 272.77562557766703 203.02726372867778C366.0575309659656 132.53087942074478 517.1613697721382 -27.875037448117382 583.1359815812395 7.831150124727685C649.110593390341 43.53733769757281 572.7098123472642 212.94226228144657 589.4537622613541 374.4169640783348C606.1977121754438 535.891665875223 719.7058139160325 724.3409856515927 663.5069411688698 782.9097187497919 "></path><path d="M568.4033510139988 377.25947276255624C583.2868620487452 520.7925410264569 684.1829524848241 688.3030474943411 634.2283989317906 740.3641435816292C584.2738453787572 792.4252396689174 422.6319811690229 671.469850558752 328.62149395943766 627.1527339815393C234.61100674985255 582.8356174043267 217.11071539199804 584.925889223395 182.97806032578228 527.6419840110088C148.84540525956652 470.3580787986227 143.131913467424 415.2585122035981 164.78474964160125 352.18998896208586C186.4375858157785 289.1214657205735 203.99442472778935 287.57652516991266 286.9116739618325 224.91307245175005C369.82892319587563 162.2496197335874 504.1434465791401 19.666582516820995 562.7875459650081 51.40541591490552C621.4316453508759 83.14424931299004 553.5198399792523 233.7264044986556 568.4033510139988 377.25947276255624C583.2868620487452 520.7925410264569 684.1829524848241 688.3030474943411 634.2283989317906 740.3641435816292 "></path><path d="M547.3529397666434 380.1021035170902C560.3760119220466 505.6935382480033 648.6600910536156 652.265231407402 604.9498566947113 697.818690483779C561.2396223358071 743.3721495601561 419.80299115228945 637.5361840887615 337.5438148439025 598.7587070837005C255.2846385355155 559.9812300786393 239.97188359739283 561.8102179203241 210.10581041445403 511.6868008594863C180.23973723151522 461.5633837986485 175.24043191339052 413.35126302800177 194.18666356579564 358.1663051916786C213.1328952182007 302.9813473553554 228.4951292662102 301.62952437352715 301.04772234599795 246.79900324513483C373.60031542578577 191.96848211674245 491.12552338614216 67.20832455207187 542.4391103487766 94.97980377539585C593.752697311411 122.75128299871983 534.3298676112404 254.51066878617718 547.3529397666434 380.1021035170902C560.3760119220466 505.6935382480033 648.6600910536156 652.265231407402 604.9498566947113 697.818690483779 "></path><path d="M526.3024980017101 382.94461220131166C537.4651312777698 490.59441339923706 613.137199104829 616.2272932501503 575.6712839400539 655.2731153156165C538.2053687752788 694.3189373810825 416.973970617978 603.6023955484585 346.46610521078924 570.364558115549C275.95823980360035 537.1267206826396 262.8330212852095 538.6944245469407 237.23352998554765 495.73149563765116C211.63403868588586 452.7685667283615 207.34891984177892 411.44389178209303 223.58854697241185 364.14249935095893C239.82817410304483 316.8411069198247 252.99580328705292 315.682401506829 315.1837402125853 268.68481196820704C377.37167713811766 221.68722242958506 478.1075696755661 114.74994451701025 522.090644214967 138.55406956557368C566.073718754368 162.35819461413706 515.1398647256501 275.2948110033862 526.3024980017101 382.94461220131166C537.4651312777698 490.59441339923706 613.137199104829 616.2272932501503 575.6712839400539 655.2731153156165 "></path><path d="M505.25208675435465 385.7871666619004C514.5542811510712 475.49533432683825 577.6143376736205 580.1894008692659 546.3927417029746 612.7275859238209C515.1711457323287 645.265770978376 414.1449806012447 569.6686527845227 355.38842609525403 541.9704549237649C296.6318715892633 514.2722570630069 285.69418949060423 515.5786769499246 264.3612800742194 479.7762361921832C243.02837065783456 443.97379543444197 239.45743828774545 409.5365663125515 252.99046089660624 370.11873928660634C266.523483505467 330.7009122606612 277.4965078254738 329.73532441649814 329.31978859675075 290.5706664676465C381.14306936802774 251.4060085187948 465.089646482568 162.29161025831587 501.7422085987355 182.1283811321187C538.394770714903 201.96515200592154 495.9498923576382 296.07899899696247 505.25208675435465 385.7871666619004C514.5542811510712 475.49533432683825 577.6143376736205 580.1894008692659 546.3927417029746 612.7275859238209 "></path><path d="M484.20167550699944 388.6297516400672C491.6434310243726 460.39628577201756 542.091476242412 544.1515390059596 517.1141994658954 570.1820870496036C492.1369226893786 596.2126350932477 411.31599058451144 535.7349405381651 364.31074697971883 513.5763822495587C317.3055033749263 491.41782396095243 308.555357695999 492.46295987048654 291.48903016289114 463.8210072642935C274.42270262978326 435.1790546581004 271.565956733712 407.62927136058806 282.3923748208006 376.095009739832C293.2187929078892 344.5607481190758 301.9972123638947 343.7882778437454 343.4558369809163 312.4565514846641C384.9144615979378 281.12482512558273 452.07172328957006 209.83330651719956 481.39377298250406 225.70272321624185C510.71582267543795 241.57213991528408 476.75991998962616 316.86321750811686 484.20167550699944 388.6297516400672C491.6434310243726 460.39628577201756 542.091476242412 544.1515390059596 517.1141994658954 570.1820870496036 "></path><path d="M463.151233742066 391.4723213594449C468.73255038009586 445.2972219584076 506.56858429362546 508.1136618838642 487.83562671123786 527.6365729165973C469.10266912885027 547.1594839493303 408.48697005019994 501.80121303301826 373.23303734660556 485.18229431656357C337.9791046430111 468.5633756001089 331.4164953838157 469.34722753225947 318.61674973398476 447.8657630776147C305.81700408415384 426.3842986229698 303.6744446621004 405.7219611498356 311.7942582274169 382.0712649342685C319.91407179273335 358.4205687187014 326.4978863847374 357.8412160122036 357.5918548475036 334.34242124289256C388.68582331026977 310.8436264735816 439.053769578994 257.3749875172942 461.0453068486945 269.2770500415759C483.0368441183949 281.1791125658576 457.569917104036 337.6474207604822 463.151233742066 391.4723213594449C468.73255038009586 445.2972219584076 506.56858429362546 508.1136618838642 487.83562671123786 527.6365729165973 "></path><path d="M442.1008377534997 394.31489107882265C445.8217155121863 430.19815814479784 471.045738121206 472.0757847617689 458.5570997329477 485.0910587835908C446.0684613446893 498.1063328054129 405.6579952922557 467.8674855278716 382.1553734898594 456.7882063835684C358.65275168746314 445.7089272392653 354.27767884799954 446.23149519403233 345.74451508144557 431.9105188909358C337.21135131489166 417.5895425878393 335.782978366856 403.8146509390831 341.1961874104003 388.04752012870506C346.6093964539446 372.28038931832697 350.9986061819473 371.89415418066176 371.72791849045814 356.2282910011211C392.4572307989689 340.56242782158046 426.03586164478503 304.9166685173888 440.69688649125203 312.85137686690996C455.357911337719 320.7860852164311 438.3799599948131 358.43162401284746 442.1008377534997 394.31489107882265C445.8217155121863 430.19815814479784 471.045738121206 472.0757847617689 458.5570997329477 485.0910587835908 "></path><path d="M421.0504265061444 397.15744553941136C422.9108653854877 415.0990790723989 435.52287668999753 436.03789238088444 429.27855749586837 442.5455293917954C423.03423830173915 449.05316640270644 402.8290052755224 433.9337427639358 391.07769437432427 428.3941031917842C379.3263834731261 422.8544636196326 377.1388470533943 423.11574759701614 372.8722651701173 415.9552594454679C368.60568328684036 408.79477129391967 367.89149681282254 401.90732546954155 370.5981013345947 394.02376006435253C373.30470585636687 386.1401946591635 375.4993107203682 385.9470770903309 385.8639668746236 378.11414550056054C396.228623028879 370.2812139107902 413.017938451787 352.45833425869444 420.34845087502055 356.425688433455C427.678963298254 360.3930426082156 419.1899876268011 379.21581200642373 421.0504265061444 397.15744553941136C422.9108653854877 415.0990790723989 435.52287668999753 436.03789238088444 429.27855749586837 442.5455293917954 "></path></g></svg>