<svg xmlns="http://www.w3.org/2000/svg" version="1.1" xmlns:xlink="http://www.w3.org/1999/xlink" xmlns:svgjs="http://svgjs.dev/svgjs" viewBox="0 0 800 800"><defs><linearGradient x1="50%" y1="0%" x2="50%" y2="100%" id="ffflurry-grad" gradientTransform="rotate(270)"><stop stop-color="" stop-opacity="1" offset="0%"></stop><stop stop-color="hsl(0, 0%, 27%)" stop-opacity="1" offset="45%"></stop><stop stop-color="hsl(0, 0%, 80%)" stop-opacity="1" offset="100%"></stop></linearGradient></defs><rect width="100%" height="100%" fill=""></rect><g fill="url(#ffflurry-grad)"><rect width="49" height="2" x="121.5" y="591" rx="1" transform="rotate(17, 146, 592)" opacity="0.64"></rect><rect width="307" height="2" x="529.5" y="35" rx="1" transform="rotate(17, 683, 36)" opacity="0.98"></rect><rect width="68" height="2" x="275" y="419" rx="1" transform="rotate(17, 309, 420)" opacity="0.35"></rect><rect width="112" height="2" x="397" y="200" rx="1" transform="rotate(17, 453, 201)" opacity="0.30"></rect><rect width="207" height="2" x="125.5" y="256" rx="1" transform="rotate(17, 229, 257)" opacity="0.44"></rect><rect width="84" height="2" x="229" y="341" rx="1" transform="rotate(17, 271, 342)" opacity="0.41"></rect><rect width="322" height="2" x="44" y="330" rx="1" transform="rotate(17, 205, 331)" opacity="0.09"></rect><rect width="403" height="2" x="173.5" y="261" rx="1" transform="rotate(17, 375, 262)" opacity="0.57"></rect><rect width="212" height="2" x="656" y="65" rx="1" transform="rotate(17, 762, 66)" opacity="0.61"></rect><rect width="56" height="2" x="228" y="582" rx="1" transform="rotate(17, 256, 583)" opacity="0.95"></rect><rect width="373" height="2" x="335.5" y="373" rx="1" transform="rotate(17, 522, 374)" opacity="0.97"></rect><rect width="360" height="2" x="577" y="371" rx="1" transform="rotate(17, 757, 372)" opacity="0.84"></rect><rect width="320" height="2" x="398" y="623" rx="1" transform="rotate(17, 558, 624)" opacity="0.55"></rect><rect width="77" height="2" x="345.5" y="700" rx="1" transform="rotate(17, 384, 701)" opacity="0.22"></rect><rect width="367" height="2" x="575.5" y="462" rx="1" transform="rotate(17, 759, 463)" opacity="0.90"></rect><rect width="191" height="2" x="662.5" y="591" rx="1" transform="rotate(17, 758, 592)" opacity="0.96"></rect><rect width="254" height="2" x="-78" y="486" rx="1" transform="rotate(17, 49, 487)" opacity="0.12"></rect><rect width="106" height="2" x="25" y="568" rx="1" transform="rotate(17, 78, 569)" opacity="0.34"></rect><rect width="172" height="2" x="474" y="738" rx="1" transform="rotate(17, 560, 739)" opacity="0.19"></rect><rect width="219" height="2" x="127.5" y="752" rx="1" transform="rotate(17, 237, 753)" opacity="0.12"></rect><rect width="347" height="2" x="11.5" y="662" rx="1" transform="rotate(17, 185, 663)" opacity="0.45"></rect><rect width="404" height="2" x="379" y="49" rx="1" transform="rotate(17, 581, 50)" opacity="0.94"></rect><rect width="152" height="2" x="220" y="247" rx="1" transform="rotate(17, 296, 248)" opacity="0.86"></rect><rect width="380" height="2" x="-106" y="664" rx="1" transform="rotate(17, 84, 665)" opacity="0.13"></rect><rect width="108" height="2" x="701" y="713" rx="1" transform="rotate(17, 755, 714)" opacity="0.98"></rect><rect width="310" height="2" x="-17" y="746" rx="1" transform="rotate(17, 138, 747)" opacity="0.85"></rect><rect width="235" height="2" x="538.5" y="603" rx="1" transform="rotate(17, 656, 604)" opacity="0.60"></rect><rect width="186" height="2" x="368" y="297" rx="1" transform="rotate(17, 461, 298)" opacity="0.13"></rect><rect width="252" height="2" x="-69" y="773" rx="1" transform="rotate(17, 57, 774)" opacity="0.09"></rect><rect width="195" height="2" x="72.5" y="509" rx="1" transform="rotate(17, 170, 510)" opacity="0.55"></rect><rect width="361" height="2" x="485.5" y="739" rx="1" transform="rotate(17, 666, 740)" opacity="0.63"></rect><rect width="192" height="2" x="-57" y="122" rx="1" transform="rotate(17, 39, 123)" opacity="0.58"></rect><rect width="103" height="2" x="380.5" y="443" rx="1" transform="rotate(17, 432, 444)" opacity="0.46"></rect><rect width="333" height="2" x="412.5" y="492" rx="1" transform="rotate(17, 579, 493)" opacity="0.40"></rect><rect width="450" height="2" x="510" y="290" rx="1" transform="rotate(17, 735, 291)" opacity="0.87"></rect><rect width="249" height="2" x="-80.5" y="369" rx="1" transform="rotate(17, 44, 370)" opacity="0.79"></rect><rect width="107" height="2" x="84.5" y="341" rx="1" transform="rotate(17, 138, 342)" opacity="0.61"></rect><rect width="153" height="2" x="38.5" y="421" rx="1" transform="rotate(17, 115, 422)" opacity="0.11"></rect><rect width="115" height="2" x="395.5" y="116" rx="1" transform="rotate(17, 453, 117)" opacity="0.86"></rect><rect width="405" height="2" x="64.5" y="486" rx="1" transform="rotate(17, 267, 487)" opacity="0.09"></rect><rect width="166" height="2" x="73" y="261" rx="1" transform="rotate(17, 156, 262)" opacity="0.78"></rect><rect width="147" height="2" x="392.5" y="743" rx="1" transform="rotate(17, 466, 744)" opacity="0.54"></rect><rect width="87" height="2" x="624.5" y="213" rx="1" transform="rotate(17, 668, 214)" opacity="0.07"></rect><rect width="130" height="2" x="591" y="122" rx="1" transform="rotate(17, 656, 123)" opacity="0.24"></rect><rect width="217" height="2" x="236.5" y="761" rx="1" transform="rotate(17, 345, 762)" opacity="0.82"></rect><rect width="355" height="2" x="302.5" y="36" rx="1" transform="rotate(17, 480, 37)" opacity="0.47"></rect><rect width="362" height="2" x="79" y="150" rx="1" transform="rotate(17, 260, 151)" opacity="0.24"></rect><rect width="230" height="2" x="274" y="61" rx="1" transform="rotate(17, 389, 62)" opacity="0.88"></rect><rect width="366" height="2" x="109" y="663" rx="1" transform="rotate(17, 292, 664)" opacity="0.35"></rect><rect width="224" height="2" x="91" y="416" rx="1" transform="rotate(17, 203, 417)" opacity="0.29"></rect><rect width="203" height="2" x="-76.5" y="262" rx="1" transform="rotate(17, 25, 263)" opacity="0.31"></rect><rect width="436" height="2" x="486" y="515" rx="1" transform="rotate(17, 704, 516)" opacity="0.65"></rect><rect width="194" height="2" x="121" y="26" rx="1" transform="rotate(17, 218, 27)" opacity="0.32"></rect><rect width="216" height="2" x="503" y="298" rx="1" transform="rotate(17, 611, 299)" opacity="0.46"></rect><rect width="54" height="2" x="510" y="135" rx="1" transform="rotate(17, 537, 136)" opacity="0.34"></rect><rect width="258" height="2" x="182" y="47" rx="1" transform="rotate(17, 311, 48)" opacity="0.37"></rect><rect width="357" height="2" x="-148.5" y="714" rx="1" transform="rotate(17, 30, 715)" opacity="0.56"></rect><rect width="317" height="2" x="195.5" y="163" rx="1" transform="rotate(17, 354, 164)" opacity="0.73"></rect><rect width="405" height="2" x="554.5" y="181" rx="1" transform="rotate(17, 757, 182)" opacity="0.55"></rect><rect width="102" height="2" x="310" y="351" rx="1" transform="rotate(17, 361, 352)" opacity="0.92"></rect><rect width="237" height="2" x="-38.5" y="244" rx="1" transform="rotate(17, 80, 245)" opacity="0.27"></rect><rect width="234" height="2" x="529" y="368" rx="1" transform="rotate(17, 646, 369)" opacity="0.90"></rect><rect width="580" height="2" x="64" y="536" rx="1" transform="rotate(17, 354, 537)" opacity="0.08"></rect><rect width="202" height="2" x="-12" y="45" rx="1" transform="rotate(17, 89, 46)" opacity="0.19"></rect><rect width="163" height="2" x="394.5" y="552" rx="1" transform="rotate(17, 476, 553)" opacity="0.49"></rect><rect width="391" height="2" x="-4.5" y="89" rx="1" transform="rotate(17, 191, 90)" opacity="0.92"></rect><rect width="441" height="2" x="195.5" y="632" rx="1" transform="rotate(17, 416, 633)" opacity="0.48"></rect><rect width="527" height="2" x="-119.5" y="172" rx="1" transform="rotate(17, 144, 173)" opacity="0.11"></rect><rect width="174" height="2" x="-64" y="604" rx="1" transform="rotate(17, 23, 605)" opacity="0.08"></rect><rect width="295" height="2" x="415.5" y="220" rx="1" transform="rotate(17, 563, 221)" opacity="0.42"></rect><rect width="316" height="2" x="493" y="433" rx="1" transform="rotate(17, 651, 434)" opacity="0.77"></rect></g></svg>