<svg xmlns="http://www.w3.org/2000/svg" version="1.1" xmlns:xlink="http://www.w3.org/1999/xlink" xmlns:svgjs="http://svgjs.dev/svgjs" viewBox="0 0 1422 800" opacity="1"><defs><linearGradient x1="50%" y1="0%" x2="50%" y2="100%" id="ssscribble-grad"><stop stop-color="hsl(206, 75%, 49%)" stop-opacity="1" offset="0%"></stop><stop stop-color="hsl(331, 90%, 56%)" stop-opacity="1" offset="100%"></stop></linearGradient></defs><g fill="none" stroke-width="1" stroke="url(#ssscribble-grad)" stroke-linecap="round"><path d="M1527.78 310.93C1501.64 340.07 1364.16 391.22 1163.14 462.48 951.57 534.02 787.27 624.88 704 729.45 712.19 826.8 798.08 924.63 928.77 1007.08 1083.71 1056.95 1219.27 1066.48 1313.66 1022.02 1367.5 932.73 1369.38 797.75 1330.86 638.59 1259.9 500.66 1171.21 406.42 1080.23 391.56 980.65 472.06 892.47 637.63 822.08 853.04 751.39 1057.23 700.3 1194.16 671.17 1214.34 642.04 1109.93 636.24 916.39 651.99 697.96 667.43 512.23 702.61 409.13 751.71 403.89 792.19 491.06 832.91 635.4 858.97 793.84 852.59 943.9 808.88 1045.22 716.86 1087.29 584.29 1075.49 414.19 1013.78 228.91 921.93 67.89 804.98 -44.12 685.77 -73.67 577.74 -11.75 469.12 135.96 379.8 336.29 311.63 526.07 245.56 657.64 197.85 683.78 168.72 589.2 139.57 410.86 130.39 207.76 141.51 29.15 154.73 -69.88 191.05 -71.45 249.18 17.92 306.73 173.69 377.96 355.73 450.02 538.75 496.97 686.11 516.87 783.59 490.5 831.63 410.27 832.77 274.42 803.4 94.02 746.29 -94.74 684.61 -265.22 631.96 -373.76 575.73 -389.9 538.68 -303.4 523.82 -128.94 510.16 78.23 517.63 265.88 546.76 370.32 575.89 350.19 625.29 219.18 693.9 26.24 763.69 -177.93 853.74 -326.94 960.45 -386.1 1063.59 -349.9 1173.25 -229.54 1275.27 -61.28 1349.55 128.21 1390.25 297.74 1380.41 425.21 1321.12 507.86 1208.31 540.16 1055.63 535.19 903.92 497.64 774.27 447.78 706.23 400.92 729.13 346.84 844.73 308.98 1034.57 292.38 1248.9 276.06 1433.16 281.79 1527.77 310.92Q1527.78 310.93 1527.78 310.93" opacity="0.20"></path><path d="M1422.28 785.15C1414.21 807 1339.13 823.28 1214.89 832.3 1060.62 838.8 902.96 833.49 764.83 812.85 657.87 785.08 594.82 737.92 575.43 671.1 597.4 599.6 649.75 514.6 718.84 424.96 804.21 350.89 886.47 293.05 956.78 265.93 1023.82 281.63 1072.38 342.77 1102.17 449.94 1125.62 590.04 1133.63 750.62 1129.21 907.47 1122.46 1032.55 1107.44 1105.74 1085.59 1108.84 1063.74 1041.02 1036.1 915.83 1001.64 759.57 964.85 595.35 917.09 451.36 855.78 346.49 788.12 288.64 703.58 281.32 602.87 316.15 498.88 388.38 385.25 479.06 271.24 572.67 173.51 670.27 95.26 751.98 50.53 812.49 47.17 861.33 90.63 888.05 181.57 896.26 303.69 895.3 448.92 882.76 594.75 863.77 710.55 842.04 781.21 819.03 789.28 797.18 728.67 775.33 615.48 755.68 473.51 736.2 320.29 713.98 186.84 686.78 91.68 649.87 39.48 603.79 39.14 541.09 83.83 458.58 166.42 364.39 273.35 251.32 389.45 125.08 512.91 2.84 626.81 -113.74 724.52 -208.73 813.15 -266.31 883.07 -278.59 936.25 -236.77 981.19 -147.93 1015.16 -16.39 1042.18 139.38 1066.6 287.21 1088.89 407.98 1110.74 475.82 1132.59 472.76 1152.97 404.01 1169.75 287.38 1183.94 138.95 1189.71 -9.19 1182.64 -133.27 1167.32 -224.44 1133.39 -265.99 1078.43 -258.96 1014.4 -209.09 931.87 -125.34 837.04 -22.63 749.58 95.64 668.56 212.01 608.72 317.18 586.79 417.68 606.72 500.82 674.93 566.45 786.11 624.96 931.99 670.02 1093.65 704.73 1244.05 736.92 1361.67 763.3 1422.28 785.15Q1422.28 785.15 1422.28 785.15" opacity="0.44"></path><path d="M1316.77 121.16C1290.63 150.29 1154.48 146.79 966.39 126.29 764.2 121.33 600.94 130.39 497.28 182.7 441.99 285.78 428.92 450.92 430.46 656.76 447.25 847.64 448.65 983.19 419.52 1003.32 390.39 898.88 333.47 707.61 266.2 500.97 214.16 316.76 181.77 198.98 198.88 149.27 264.36 154.96 396.72 190.72 577.55 223.19 744.29 266.97 868.63 281.15 894.77 252.02 800.19 222.88 629.85 153.19 448.74 58.93 283.31 -24.02 187.49 -105.25 164.23 -149.12 193.96 -137.6 263.36 -50.71 338.62 112.13 426.08 297.42 492.54 476.88 521.67 581.32 550.82 561.18 539.88 437.44 502.91 267.92 478.13 83.43 454.19 -50.8 462.63 -115.69 524.05 -129.82 650.77 -93.41 837.54 -37.97 1039.99 33.01 1222.15 92.02 1316.76 121.15Q1316.77 121.16 1316.77 121.16" opacity="0.79"></path></g></svg>