<svg xmlns="http://www.w3.org/2000/svg" version="1.1" xmlns:xlink="http://www.w3.org/1999/xlink" xmlns:svgjs="http://svgjs.dev/svgjs" viewBox="0 0 800 800"><defs><linearGradient x1="50%" y1="0%" x2="50%" y2="100%" id="uundulate-grad"><stop stop-color="#737373" stop-opacity="1" offset="45%"></stop><stop stop-color="hsl(0, 0%, 0%)" stop-opacity="1" offset="100%"></stop></linearGradient></defs><g stroke-width="2" stroke="url(#uundulate-grad)" fill="none"><path d="M1049.5406673821656 -76.11550261572165C1221.671455425678 232.29001599136336 1216.4168837836655 593.7988042031868 1035.3952870149096 897.0712124487709C854.3736902461535 1200.3436206943543 474.44914939879345 1485.2576834755632 180.63700289213955 1379.5920569630807C-113.17514361451413 1273.9264304505991 -380.846870699094 798.806899736423 -374.9030162170301 389.8762051888566C-368.9591617349662 -19.054489358710043 -87.5915963437842 -486.1936710726185 209.16750440604812 -583.2752768652388C505.92660515588045 -680.356882657859 877.4098793386534 -384.52102122280644 1049.5406673821656 -76.11550261572165C1221.671455425678 232.29001599136336 1216.4168837836655 593.7988042031868 1035.3952870149096 897.0712124487709 "></path><path d="M1023.559041907582 -57.07082025523334C1188.804598429354 238.99847760756825 1183.760209653022 586.046914290919 1009.9794767550163 877.1884262066794C836.1987438570106 1168.3299381224397 471.4711846435446 1441.8474383924004 189.41152399715713 1340.4084369404172C-92.64813664923042 1238.9694354884346 -349.6129946504271 782.8546860028257 -343.90689434764573 390.2812192371616C-338.20079404486444 -2.29224752850223 -68.08793126932972 -450.74586197385435 216.8008054505093 -543.9442035347698C501.6895421703482 -637.1425450956854 858.3134853858103 -353.14011811803493 1023.559041907582 -57.07082025523334C1188.804598429354 238.99847760756825 1183.760209653022 586.046914290919 1009.9794767550163 877.1884262066794 "></path><path d="M997.5774164329985 -38.02616841232316C1155.93774143303 245.706908706195 1151.1035355223785 578.2949938610727 984.563666495123 857.3056094470098C818.0237974678676 1136.3162250329472 468.49321988829615 1398.437162791659 198.1860451021746 1301.2247864001756C-72.12112968394672 1204.0124100086919 -318.3791186017602 766.90244175165 -312.91077247826144 390.6862027678885C-307.44242635476263 14.469963784127344 -48.58426619487523 -415.29808339266833 224.43410649497048 -504.613160721879C497.4524791848162 -593.9282380510897 839.2170914329672 -321.7592455308413 997.5774164329985 -38.02616841232316C1155.93774143303 245.706908706195 1151.1035355223785 578.2949938610727 984.563666495123 857.3056094470098 "></path><path d="M971.5957909584151 -18.98163863972559C1123.070884436706 252.41521773450904 1118.446861391735 570.542951360914 959.1478562352297 837.4226706170277C799.8488510787245 1104.3023898731415 465.5152551330475 1355.026765120605 206.9605662071922 1262.0410137896206C-51.594122718663016 1169.0552624586367 -287.1452425530933 750.9500754301616 -281.9146506088771 391.09106422830314C-276.6840586646609 31.232053026444532 -29.080601120420738 -379.8504268817949 232.06740753943166 -465.28223997930075C493.21541619928416 -550.7140530768066 820.1206974801241 -290.37849501396033 971.5957909584151 -18.98163863972559C1123.070884436706 252.41521773450904 1118.446861391735 570.542951360914 959.1478562352297 837.4226706170277 "></path><path d="M945.6141654838316 0.06304372076260734C1090.204027440382 259.1236793507139 1085.7901872610914 562.7910614486459 933.7320459753364 817.5398843749363C781.6739046895816 1072.2887073012266 462.53729037779885 1311.6165200374417 215.73508731220977 1222.8573937669569C-31.067115753379312 1134.098267496472 -255.91136650442644 734.9978616965641 -250.91852873949279 391.49607827660816C-245.92569097455913 47.99429485665223 -9.57693604596625 -344.4026177830308 239.70070858389295 -425.9511666488318C488.97835321375214 -507.49971551463284 801.0243035272813 -258.9975919091887 945.6141654838316 0.06304372076260734C1090.204027440382 259.1236793507139 1085.7901872610914 562.7910614486459 933.7320459753364 817.5398843749363 "></path><path d="M919.632540009248 19.10763452851654C1057.3371704440578 265.83204941418444 1053.133513130448 555.0390799836434 908.3162357154431 797.6570065801104C763.4989583004385 1040.2749331765776 459.5593256225502 1268.2061834015442 224.50960841722735 1183.6736821915588C-10.540108788095722 1099.1411809815731 -224.67749045575954 719.0455564102324 -219.92240687010843 391.90100077217903C-215.16732328445732 64.75644513412567 9.92672902848824 -308.954900237001 247.33400962835412 -386.62018487109725C484.7412902282199 -464.28546950519353 781.9279095744382 -227.61678035715147 919.632540009248 19.10763452851654C1057.3371704440578 265.83204941418444 1053.133513130448 555.0390799836434 908.3162357154431 797.6570065801104 "></path><path d="M893.6509450522426 38.15231688900474C1024.4703439653122 272.5405110303892 1020.4768695173827 547.2871900713751 882.9004559731281 777.774220338019C745.3240424288736 1008.2612506046628 456.5813913848798 1224.795938318381 233.28416003982306 1144.4900621688948C9.98692869476622 1064.1841860194086 -193.4435838895145 703.0933426766348 -188.926254483146 392.30601482048405C-184.40892507677745 81.51868696433348 29.430424620520853 -273.5070911382369 254.96734119039343 -347.2891115406283C480.504257760266 -421.0711319430198 762.8315461391735 -196.23587725237985 893.6509450522426 38.15231688900474C1024.4703439653122 272.5405110303892 1020.4768695173827 547.2871900713751 882.9004559731281 777.774220338019 "></path><path d="M867.6693500952372 57.19684666160242C991.6035174865663 279.2488200587035 987.8202259043171 539.5351475712164 857.484676230813 757.8912815080369C727.1491265573086 976.2474154448573 453.60345714720927 1181.3855406473274 242.05871166241855 1105.3062895583405C30.513966177627935 1029.2270384693531 -162.20967732326955 687.1409763551464 -157.93010209618353 392.71087628089845C-153.65052686909752 98.28077620665067 48.93412021255358 -238.05943462736343 262.60067275243273 -307.95819079805005C476.267225292312 -377.8569469687367 743.7351827039085 -164.85512673549886 867.6693500952372 57.19684666160242C991.6035174865663 279.2488200587035 987.8202259043171 539.5351475712164 857.484676230813 757.8912815080369 "></path><path d="M841.6876941030755 76.24149850451249C958.7366299726641 285.95725115733023 955.1635212560957 531.7832271413702 832.0688354533418 738.0084647483673C708.9741496505876 944.2337023553644 450.6254618743825 1137.9752650465862 250.833202249858 1066.1226390180982C51.040942625333514 994.2700129896104 -130.97583179218077 671.1887321039708 -126.9340107443773 393.11585981162546C-122.8921896965739 115.04298751928025 68.43775476942983 -202.61165604617742 270.2339432793158 -268.62714798515924C472.03013178920185 -334.64263992414106 724.6387582334874 -133.4742541483053 841.6876941030755 76.24149850451249C958.7366299726641 285.95725115733023 955.1635212560957 531.7832271413702 832.0688354533418 738.0084647483673 "></path><path d="M815.7061906988047 95.28611982984444C925.8698950466526 292.66565173837876 922.5069691957647 524.0312761939458 806.6531472637607 718.1256174711195C690.799325331757 912.2199587482933 447.64761918944646 1094.5649589282664 259.6078454251881 1026.938957960278C71.56807166092972 959.3129569922896 -99.74183367320137 655.236457335217 -95.9377668046805 393.52081282477445C-92.13369993615964 131.8051683143317 87.94154191419682 -167.16390798256958 277.86736639408946 -229.29613568984655C467.7931908739822 -291.4283633971236 705.542486350957 -102.09341207868994 815.7061906988047 95.28611982984444C925.8698950466526 292.66565173837876 922.5069691957647 524.0312761939458 806.6531472637607 718.1256174711195 "></path><path d="M789.7244431539089 114.33077167275462C893.002915980016 299.3740828370055 889.8501729948084 516.2793557640998 781.2372149335552 698.24280071145C672.6242568723014 880.2062456588005 444.6695323638853 1051.1546833275254 268.3822444598932 987.7553074200362C92.09495655590092 924.3559315125472 -68.50807969484697 639.2842130840413 -64.94176700560865 393.92579635550146C-61.37545431637034 148.56737962696138 107.44508491833881 -131.71612940138357 285.50054536823825 -189.96509287695574C463.5560058181376 -248.21405635252796 686.4459703278012 -70.71253949149639 789.7244431539089 114.33077167275462C893.002915980016 299.3740828370055 889.8501729948084 516.2793557640998 781.2372149335552 698.24280071145 "></path><path d="M763.7428176793253 133.37533196293032C860.1360589836922 306.0824223828979 857.1934988641651 508.5273437815191 755.8214046736618 678.3598923990462C654.4493104831586 848.1924410165732 441.69156760863666 1007.7443161740498 277.15676556491076 948.57156532706C112.62196352118463 889.3988144800701 -37.274203646180126 623.3318772801313 -33.94564513622436 394.3306883334941C-30.617086626268588 165.3294993868567 126.94874999279335 -96.26844237293199 293.1338464126994 -150.63414161679935C459.31894283260544 -204.99984086066672 667.3495763749584 -39.33175845703727 763.7428176793253 133.37533196293032C860.1360589836922 306.0824223828979 857.1934988641651 508.5273437815191 755.8214046736618 678.3598923990462 "></path><path d="M737.7611922047417 152.4199838058404C827.2692019873682 312.79085348152455 824.5368247335216 500.77542335167277 730.4055944137685 658.4770756393764C636.2743640940155 816.1787279270802 438.7136028533881 964.3340405733084 285.9312866699282 909.3879147868179C133.14897048646827 854.4417890003272 -6.040327597513226 607.3796330289556 -2.9495232668400035 394.735671864221C0.14128106383321892 182.09171069948638 146.45241506724784 -60.82066379174597 300.7671474571607 -111.30309880390854C455.0818798470734 -161.7855338160711 648.2531824221153 -7.950885869843773 737.7611922047417 152.4199838058404C827.2692019873682 312.79085348152455 824.5368247335216 500.77542335167277 730.4055944137685 658.4770756393764 "></path><path d="M711.7795667301582 171.46463564875057C794.4023449910442 319.4992845801513 791.8801506028781 493.02350292182666 704.9897841538753 638.594258879707C618.0994177048725 784.165014837587 435.7356380981395 920.9237649725674 294.7058077749457 870.2042642465758C153.67597745175198 819.4847635205845 25.193548451153674 591.42738877778 28.046598602544293 395.140655394948C30.89964875393497 198.85392201211607 165.95608014170233 -25.372885210559957 308.4004485016219 -71.97205599101773C450.8448168615413 -118.5712267714755 629.1567884692723 23.42998671734972 711.7795667301582 171.46463564875057C794.4023449910442 319.4992845801513 791.8801506028781 493.02350292182666 704.9897841538753 638.594258879707 "></path><path d="M685.7978802204185 190.50919593892627C761.5354269595639 326.2076241260436 759.2234154370785 485.27149093924606 679.5739128588258 618.7113505673029C599.9244102805732 752.1512101953599 432.7576123077347 877.5133978190916 303.48026784480703 831.0205221535994C174.20292338187943 784.5276464881074 56.42736346466427 575.4750529738699 59.0426594367724 395.54554737294063C61.65795540888047 215.61604177201139 185.45968418100057 10.074801817891625 316.0336885109268 -32.64110473086129C446.607692840853 -75.35701127961426 610.060333481273 54.810767751808896 685.7978802204185 190.50919593892627C761.5354269595639 326.2076241260436 759.2234154370785 485.27149093924606 679.5739128588258 618.7113505673029 "></path><path d="M659.8163157809912 209.5537867466801C728.6686309983961 332.9159941895141 726.5668023415911 477.5195094742436 654.1581636340887 598.8284727724771C581.7495249265864 720.1374360707107 429.7797085876423 834.1030611831939 312.25484998498086 791.8368105782013C194.72999138231933 749.5705599732084 87.66130054848742 559.5227476875381 90.03884234131294 395.9504698685114C92.41638413413853 232.3781920494847 204.9634102906113 45.52251936392139 323.66705059054425 6.689877046873221C442.37069089047714 -32.14276527017489 590.9640005635863 86.19157930384614 659.8163157809912 209.5537867466801C728.6686309983961 332.9159941895141 726.5668023415911 477.5195094742436 654.1581636340887 598.8284727724771 "></path><path d="M633.8346292712514 228.59840807201215C695.8017129669159 339.62439477056273 693.9100671757914 469.76755852681913 628.7422923390393 578.9456254952294C563.5745175022871 688.1236924636396 426.8016827972374 790.6927550648747 321.0293100548421 752.6531295203813C215.25693731244678 714.6135039758875 118.89511556199807 543.5704729187842 121.03490317554105 396.35542288166016C123.17469078908402 249.14037284453627 224.4670143299096 80.97026742752922 331.3002905998492 46.02088934218591C438.13356686978887 11.071511256842598 571.8675455755871 117.57242137346151 633.8346292712514 228.59840807201215C695.8017129669159 339.62439477056273 693.9100671757914 469.76755852681913 628.7422923390393 578.9456254952294 "></path><path d="M607.8530343142461 247.64305991492222C662.93488648817 346.3328258691894 661.2534235627261 462.0156380969729 603.3265125967241 559.0628087355598C545.3996016307223 656.1099793741466 423.823748559567 747.2824794641332 329.8038616774378 713.469478980139C235.7839747953086 679.6564784961448 150.12902212824304 527.6182286676085 152.03105556250352 396.7604064123873C153.93308899676396 265.90258415716585 243.97070992194216 116.41804600871524 338.9336221618885 85.35193215507672C433.89653440183486 54.28581830143821 552.7711821403223 148.95329396065506 607.8530343142461 247.64305991492222C662.93488648817 346.3328258691894 661.2534235627261 462.0156380969729 603.3265125967241 559.0628087355598 "></path><path d="M581.8713783220845 266.6876507226761C630.067998974268 353.0411959326599 628.5967189145044 454.26365663197043 577.9106718192528 539.179930940734C527.2246247240012 624.0962052494975 420.8457532867402 703.8721428282358 338.57835226487725 674.2857674047409C256.3109512430142 644.699391981246 181.3628676593318 511.66592338127657 183.0271469143097 397.1653289079579C184.69142616928758 282.6647344346393 263.4743444788186 151.86576355474494 346.5668926887716 124.68291393281129C429.6594408987246 97.50006431087758 533.674757669901 180.3341055126923 581.8713783220845 266.6876507226761C630.067998974268 353.0411959326599 628.5967189145044 454.26365663197043 577.9106718192528 539.179930940734 "></path><path d="M555.8898138826572 285.7323178243753C597.2012030131002 359.7496422900756 595.9401058190172 446.5117514609133 552.4949225945159 519.2971294398535C509.0497393700143 592.0825074187935 417.8678495666479 660.4618824862837 347.352934405051 635.1021321232879C276.83801924345414 609.7423817602922 212.59680474315496 495.71369438888996 214.0233298188503 397.570327697474C215.44985489454564 299.42696100605804 282.9780705884293 187.31355739472002 354.2002547683891 164.0139720044911C425.4224389483488 140.71438661426225 514.5784247522142 211.71499335867486 555.8898138826572 285.7323178243753C597.2012030131002 359.7496422900756 595.9401058190172 446.5117514609133 552.4949225945159 519.2971294398535 "></path><path d="M529.9081578904957 304.77689337334004C564.334315499198 366.45799709475705 563.2834011707955 438.75975473712174 527.0790818170444 499.4142363862386C490.8747624632932 560.0687180353553 414.88985429382114 617.0515305915969 356.12742499249043 595.9184052891006C297.36499569115966 574.7852799866042 243.83065027424368 479.761373843769 245.01942117065647 397.9752349342557C246.20819206706926 316.18909602474235 302.4817051453057 222.76125968196067 361.8335252952721 203.3449385234366C421.18534544523857 183.92861736491255 495.48200028179315 243.09578965192304 529.9081578904957 304.77689337334004C564.334315499198 366.45799709475705 563.2834011707955 438.75975473712174 527.0790818170444 499.4142363862386 "></path><path d="M503.9265324159121 323.8215299574611C531.467458502874 373.1664129345947 530.6267270401521 431.00781904848645 501.6632715571511 479.53140436777994C472.69981607415025 528.0549896870733 411.91188953857255 573.6412397320667 364.90194609750796 556.7347394900695C317.89200265644337 539.8282392480724 275.0645263229106 463.80911433380425 276.0155430400408 398.38020320619364C276.966559757171 332.9512920785829 321.98537021976017 258.2090230043576 369.4668263397333 242.67596607753836C416.9482824597065 227.1429091507191 476.3856063289502 274.47664698032753 503.9265324159121 323.8215299574611C531.467458502874 373.1664129345947 530.6267270401521 431.00781904848645 501.6632715571511 479.53140436777994 "></path><path d="M477.9449069413286 342.8661512827931C498.6006015065501 379.87481351564327 497.9700529095086 423.2558681010621 476.2474612972579 459.6485570905322C454.52486968500716 496.0412460800022 408.93392478332396 530.2309336137473 373.6764672025255 517.5510584322494C338.41900962172707 504.8711832507515 306.2984023715775 447.85683956505045 307.0116649094251 398.78515621934247C307.7249274472728 349.7134728736345 341.48903529421466 293.65677106796545 377.10012738419454 282.00697837285105C412.7112194741744 270.3571856777366 457.2892123761071 305.8574890499429 477.9449069413286 342.8661512827931C498.6006015065501 379.87481351564327 497.9700529095086 423.2558681010621 476.2474612972579 459.6485570905322 "></path><path d="M451.96326620795605 361.910757349336C465.733729251437 386.58319883790284 465.31336352007605 415.5039018948487 450.83163577857556 439.76569455449544C436.3499080370751 464.0274872141421 405.95594476928625 486.8206122366388 382.45097304875395 478.3673621156402C358.94600132822166 469.91411199464164 337.5322631614553 431.9045495375076 338.0077715200204 399.1900939737023C338.4832798785855 366.47563840989693 360.9926851098801 329.1045038727843 384.73341316986665 321.3379754093746C408.4741412298532 313.571446945965 438.1928031644751 337.2383158607692 451.96326620795605 361.910757349336C465.733729251437 386.58319883790284 465.31336352007605 415.5039018948487 450.83163577857556 439.76569455449544 "></path><path d="M425.9816254745835 380.95539393345706C432.866856996324 393.2916146777405 432.6566741306435 407.7519662062134 425.41581025989325 419.8828625360368C418.17494638914303 432.01375886586015 402.9779647552486 443.41032137710846 391.2254788949825 439.18369631660914C379.4729930347163 434.9570712561099 368.7661239513331 415.95229002754286 369.00387813061565 399.5950622456402C369.24163230989825 383.23783446373756 380.4963349255455 364.5522671951812 392.3666989555388 360.6690029634764C404.2370629855321 356.7857387317716 419.096393952843 368.6191731891737 425.9816254745835 380.95539393345706C432.866856996324 393.2916146777405 432.6566741306435 407.7519662062134 425.41581025989325 419.8828625360368 "></path></g></svg>